<?xml version="1.0" encoding="UTF-8"?>
<svg id="Capa_2" data-name="Capa 2" xmlns="http://www.w3.org/2000/svg" viewBox="0 0 272.04 462.47">
  <defs>
    <style>
      .cls-1 {
        fill: #fff;
        stroke-width: 0px;
      }
    </style>
  </defs>
  <g id="Capa_4" data-name="Capa 4">
    <g>
      <path class="cls-1" d="M272.04,247.42v49.24c0,1.42-1.16,2.58-2.59,2.58h-49.23c-1.43,0-2.59,1.17-2.59,2.59v22.03c0,1.43-1.17,2.59-2.59,2.59h-22.03c-1.43,0-2.59-1.16-2.59-2.59v-76.44c0-1.42,1.16-2.59,2.59-2.59h76.44c1.43,0,2.59,1.17,2.59,2.59Z"/>
      <path class="cls-1" d="M269.46,54.41h-22.03c-1.42,0-2.59-1.16-2.59-2.58v-22.03c0-1.43-1.16-2.59-2.59-2.59h-22.02c-1.43,0-2.59-1.16-2.59-2.59V2.59c0-1.42-1.17-2.59-2.59-2.59H56.99c-1.42,0-2.59,1.17-2.59,2.59v22.03c0,1.43-1.16,2.59-2.58,2.59h-22.03c-1.43,0-2.59,1.16-2.59,2.59v22.03c0,1.42-1.16,2.58-2.59,2.58H2.59c-1.42,0-2.59,1.17-2.59,2.59v266.87c0,1.43,1.17,2.59,2.59,2.59h22.03c1.43,0,2.59,1.16,2.59,2.59v49.23c0,1.43,1.16,2.59,2.59,2.59h22.03c1.42,0,2.58,1.16,2.58,2.59v51.82h24.62c1.43,0,2.59,1.16,2.59,2.59v24.62h79.03c1.42,0,2.59-1.17,2.59-2.59v-22.03c0-1.43-1.17-2.59-2.59-2.59h-49.24c-1.42,0-2.58-1.16-2.58-2.59v-22.03c0-1.42-1.17-2.58-2.59-2.58h-22.03c-1.43,0-2.59-1.17-2.59-2.59v-22.03c0-1.43,1.16-2.59,2.59-2.59h22.03c1.42,0,2.59-1.16,2.59-2.59v-22.03c0-1.42,1.16-2.59,2.58-2.59h49.24c1.42,0,2.59-1.16,2.59-2.58v-22.03c0-1.43-1.17-2.59-2.59-2.59h-49.24c-1.42,0-2.58-1.16-2.58-2.59v-22.03c0-1.42,1.16-2.59,2.58-2.59h49.24c1.42,0,2.59-1.16,2.59-2.58v-130.86c0-1.42,1.16-2.58,2.58-2.58h103.65c1.43,0,2.59-1.17,2.59-2.59V56.99c0-1.42-1.16-2.59-2.59-2.59ZM108.82,242.25c0,1.43-1.17,2.59-2.59,2.59H29.8c-1.43,0-2.59-1.16-2.59-2.59v-22.02c0-1.43,1.16-2.59,2.59-2.59h22.03c1.42,0,2.58-1.17,2.58-2.59v-22.03c0-1.43-1.16-2.59-2.58-2.59h-22.03c-1.43,0-2.59-1.16-2.59-2.59v-22.03c0-1.42,1.16-2.58,2.59-2.58h76.44c1.42,0,2.59,1.16,2.59,2.58v76.44Z"/>
    </g>
  </g>
</svg>